<svg id="Layer_1" data-name="Layer 1" xmlns="http://www.w3.org/2000/svg" viewBox="0 0 92.6 92.6"><defs><style>.cls-1{fill:#e2f8fe;}.cls-2{fill:#68a4f8;}.cls-3{fill:#1b51a6;}</style></defs><circle class="cls-1" cx="46.3" cy="46.3" r="46.3"/><rect class="cls-2" x="21.39" y="32.11" width="9.97" height="9.97"/><polygon class="cls-2" points="56.33 55.3 63.46 46.32 70.84 55.01 70.2 55.3 56.33 55.3"/><path class="cls-3" d="M75.35,38.19h-44V36.73H73.59L69.1,32.25H31.36V30.79H69.41a.74.74,0,0,1,.51.21l5.94,6a.73.73,0,0,1,.16.79A.71.71,0,0,1,75.35,38.19Z"/><path class="cls-3" d="M45.17,29.14H43.71v-1l-4.49-7.78v8.78H37.76V19.63a.73.73,0,0,1,.73-.73h1.19a.71.71,0,0,1,.63.37l4.76,8.32a.75.75,0,0,1,.1.36Z"/><rect class="cls-3" x="62.73" y="37.46" width="1.46" height="8.32"/><rect class="cls-3" x="55.74" y="54.57" width="15.44" height="1.46"/><path class="cls-3" d="M70,55.74,63.46,47l-6.55,8.74-1.17-.88,7.14-9.51a.76.76,0,0,1,1.17,0l7.13,9.51Z"/><path class="cls-3" d="M59.89,38.19a.73.73,0,0,1-.51-.21L54,32.55,48.52,38a.74.74,0,0,1-1,0l-5.43-5.43L36.63,38l-1-1,5.94-6a.74.74,0,0,1,1,0L48,36.43,53.43,31a.74.74,0,0,1,1,0l5.43,5.43L65.32,31l1,1L60.41,38A.73.73,0,0,1,59.89,38.19Z"/><polygon class="cls-3" points="63.14 32.17 39.36 20.28 40.01 18.98 63.79 30.86 63.14 32.17"/><rect class="cls-3" x="19.94" y="24.84" width="20.45" height="1.46" transform="translate(-9.25 22.35) rotate(-35.62)"/><rect class="cls-3" x="37.76" y="39.84" width="1.46" height="34.48"/><rect class="cls-3" x="43.71" y="39.84" width="1.46" height="34.48"/><path class="cls-3" d="M43.92,72.46,38,66.51a.72.72,0,0,1,0-1l5.42-5.43L38,54.63a.72.72,0,0,1,0-1l5.42-5.43L38,42.74l1-1L45,47.65a.72.72,0,0,1,0,1l-5.43,5.43L45,59.54a.7.7,0,0,1,.22.51.73.73,0,0,1-.22.52L39.52,66,45,71.43Z"/><path class="cls-3" d="M31.36,43H20.66a.73.73,0,0,1-.73-.73V31.52a.73.73,0,0,1,.73-.73h10.7a.73.73,0,0,1,.73.73v10.7A.73.73,0,0,1,31.36,43Zm-10-1.46h9.24V32.25H21.39Z"/><path class="cls-3" d="M71.18,70.47H55.74V57.75H71.18ZM57.07,69H69.85v-9.8H57.07Z"/></svg>