<svg id="_ÎÓÈ_1" data-name="—ÎÓÈ 1" xmlns="http://www.w3.org/2000/svg" viewBox="0 0 471.5 471.5"><defs><style>.cls-1{fill:#dff2f9;}.cls-2{fill:#6ca0d5;}.cls-3{fill:#1454a5;}</style></defs><circle class="cls-1" cx="235.75" cy="235.75" r="235.75"/><polygon class="cls-2" points="143.45 144.43 328.99 144.43 352.53 207.29 348.09 220.31 332.32 226.12 310.52 214.22 309.4 220.03 300.47 222.67 291.61 226.12 284.4 223.63 273.81 215.32 266.68 220.86 257.82 224.74 247.99 224.46 240.65 219.2 234.56 213.94 228.74 221.42 219.88 226.12 209.36 226.12 200.78 220.03 195.24 215.6 190.25 222.67 183.51 225.02 172.8 225.02 163.94 220.31 158.68 214.49 153.97 218.92 145.71 224.46 132.37 226.12 123.41 221.42 119.36 212.28 120.46 200.65 143.45 144.43"/><rect class="cls-2" x="154.25" y="245.74" width="41.73" height="69.03"/><path class="cls-3" d="M355.55,207.19V207a1.93,1.93,0,0,0,0-.24c0-.05,0-.1,0-.14a1.18,1.18,0,0,0,0-.2l0-.19a.94.94,0,0,1,0-.16c0-.07-.05-.14-.07-.21s0-.05,0-.07L332.5,143.06l0-.07a1.89,1.89,0,0,0-.09-.21l-.06-.14-.1-.17-.09-.16-.1-.14-.12-.16-.1-.11a1.07,1.07,0,0,0-.14-.16l-.11-.1a1.85,1.85,0,0,0-.14-.14l-.14-.11-.14-.1-.16-.11-.14-.08-.19-.1-.12-.06-.2-.08-.14-.05-.2-.06-.16,0-.17,0-.21,0h-.14l-.24,0H142.42l-.23,0H142l-.2,0-.18,0-.15,0-.2.06-.14.05-.2.08-.13.06-.19.1-.13.08-.16.11-.15.11-.13.1-.15.14-.11.1-.14.16-.09.11-.12.16-.1.15-.09.15a1.62,1.62,0,0,0-.1.18l-.07.13L139,143a.14.14,0,0,0,0,.06l-22.83,62.71a.14.14,0,0,0,0,.06,2,2,0,0,0-.07.23.83.83,0,0,0,0,.15c0,.06,0,.12,0,.19l0,.19s0,.11,0,.16,0,.15,0,.23v.07a.71.71,0,0,0,0,.14v.06a23.05,23.05,0,0,0,42.41,12.34,23,23,0,0,0,38.69,0,23,23,0,0,0,38.7,0,23,23,0,0,0,38.69,0,23,23,0,0,0,38.7,0,23.05,23.05,0,0,0,42.41-12.34ZM139,222.67a15.63,15.63,0,0,1-15.6-15l21.69-59.6H168l-13.28,58.16v0a1.85,1.85,0,0,1,0,.23,1,1,0,0,1,0,.16.86.86,0,0,0,0,.16,1.7,1.7,0,0,0,0,.22v0A15.64,15.64,0,0,1,139,222.67Zm38.7,0a15.65,15.65,0,0,1-15.62-15.25l13.56-59.36h22l-4.35,58.71v.14s0,.09,0,.14A15.64,15.64,0,0,1,177.71,222.67Zm38.69,0a15.65,15.65,0,0,1-15.62-15.52l4.38-59.09H232v59A15.63,15.63,0,0,1,216.4,222.67Zm38.69,0a15.64,15.64,0,0,1-15.62-15.62v-59h26.87l4.37,59.09A15.63,15.63,0,0,1,255.09,222.67Zm38.7,0a15.63,15.63,0,0,1-15.62-15.62c0-.05,0-.1,0-.15v-.13l-4.35-58.71h22l13.55,59.36A15.64,15.64,0,0,1,293.79,222.67Zm38.69,0a15.64,15.64,0,0,1-15.62-15.62v0c0-.07,0-.14,0-.21a1,1,0,0,1,0-.17l0-.16a2.23,2.23,0,0,0,0-.23v0l-13.28-58.16h22.9l21.7,59.6A15.64,15.64,0,0,1,332.48,222.67Z"/><path class="cls-3" d="M332.48,249.51a3.73,3.73,0,0,0-3.72,3.72V333.7h-186V253.11a3.73,3.73,0,0,0-7.45,0v88H336.21V253.23A3.73,3.73,0,0,0,332.48,249.51Z"/><path class="cls-3" d="M195.51,319.07a3.19,3.19,0,0,0,3.19-3.2V244.64a3.19,3.19,0,0,0-3.19-3.2H152.94a3.19,3.19,0,0,0-3.19,3.2v71.23a3.19,3.19,0,0,0,3.19,3.2Zm-39.37-71.24h36.18v64.85H156.14Z"/><path class="cls-3" d="M319.2,295.15a3.19,3.19,0,0,0,3.19-3.19V246.47a3.19,3.19,0,0,0-3.19-3.19H210.08a3.19,3.19,0,0,0-3.19,3.19V292a3.19,3.19,0,0,0,3.19,3.19ZM213.27,249.66H316v39.11H213.27Z"/><path class="cls-3" d="M183.51,275a5.23,5.23,0,1,0,5.23,5.23A5.23,5.23,0,0,0,183.51,275Z"/><path class="cls-3" d="M301.08,255.07a3.2,3.2,0,0,0-4.52,4.52l8.52,8.51a3.19,3.19,0,1,0,4.51-4.52Z"/><path class="cls-3" d="M290.76,256a3.19,3.19,0,0,0-4.51,4.51l17.92,17.92a3.19,3.19,0,0,0,4.51-4.51Z"/><path class="cls-3" d="M289.86,266.29a3.2,3.2,0,0,0-4.52,4.52l8.51,8.51a3.19,3.19,0,0,0,4.52,0,3.18,3.18,0,0,0,0-4.51Z"/></svg>