<?xml version="1.0" encoding="UTF-8"?>
<svg width="102px" height="102px" viewBox="0 0 102 102" version="1.1" xmlns="http://www.w3.org/2000/svg" xmlns:xlink="http://www.w3.org/1999/xlink">
    <title>Group 89</title>
    <g id="Home-page" stroke="none" stroke-width="1" fill="none" fill-rule="evenodd">
        <g transform="translate(-815.000000, -1127.000000)" id="Group-89">
            <g transform="translate(815.000000, 1127.000000)">
                <circle id="Oval-Copy-6" fill="#DDF9FF" cx="51" cy="51" r="51"></circle>
                <g id="search" transform="translate(24.000000, 31.000000)" fill-rule="nonzero">
                    <g id="Group" transform="translate(0.854839, 0.854839)" fill="#57A4FF">
                        <polygon id="Path" points="38.4681593 41.8870968 41.8875141 38.4677419 51.2903226 47.8709677 47.8709677 51.2903226"></polygon>
                        <path d="M17.9520303,0.000417375 L0.000417375,17.0971916 L35.9036432,17.0971916 L17.9520303,0.000417375 Z M20.5165464,13.6778367 L15.3875141,13.6778367 L20.5165464,13.6778367 Z" id="Shape"></path>
                        <path d="M41.0326754,29.9197722 C41.0326754,23.7822974 36.057247,18.806869 29.9197722,18.806869 C23.78188,18.806869 18.806869,23.7822974 18.806869,29.9197722 C18.806869,36.057247 23.78188,41.0326754 29.9197722,41.0326754 C36.057247,41.0326754 41.0326754,36.057247 41.0326754,29.9197722 Z M29.9197722,37.6133206 C25.6706228,37.6133206 22.2262238,34.1685043 22.2262238,29.9197722 C22.2262238,25.6706228 25.6706228,22.2262238 29.9197722,22.2262238 C34.1685043,22.2262238 37.6133206,25.6706228 37.6133206,29.9197722 C37.6133206,34.1685043 34.1685043,37.6133206 29.9197722,37.6133206 Z" id="Shape"></path>
                    </g>
                    <path d="M23.0810625,13.6778367 L22.2262238,13.6778367 L22.2262238,9.40364318 L23.0810625,9.40364318 C23.5531439,9.40364318 23.9359012,9.02088584 23.9359012,8.54880447 C23.9359012,8.07672321 23.5531439,7.69396576 23.0810625,7.69396576 L14.5326754,7.69396576 C14.0601767,7.69396576 13.6778367,8.07672321 13.6778367,8.54880447 C13.6778367,9.02088584 14.0601767,9.40364318 14.5326754,9.40364318 L15.3875141,9.40364318 L15.3875141,13.6778367 L14.5326754,13.6778367 C14.0601767,13.6778367 13.6778367,14.0605942 13.6778367,14.5326754 C13.6778367,15.0047568 14.0601767,15.3875141 14.5326754,15.3875141 L23.0810625,15.3875141 C23.5531439,15.3875141 23.9359012,15.0047568 23.9359012,14.5326754 C23.9359012,14.0605942 23.5531439,13.6778367 23.0810625,13.6778367 Z M20.5165464,9.40364318 L20.5165464,13.6778367 L19.6617077,13.6778367 L19.6617077,9.40364318 L20.5165464,9.40364318 Z M17.0971916,9.40364318 L17.9520303,9.40364318 L17.9520303,13.6778367 L17.0971916,13.6778367 L17.0971916,9.40364318 Z" id="Shape" fill="#004FAC"></path>
                    <path d="M30.7746109,22.2262238 C26.0533801,22.2262238 22.2262238,26.0533801 22.2262238,30.7746109 C22.2262238,35.4958417 26.0533801,39.322998 30.7746109,39.322998 C35.4954244,39.322998 39.322998,35.4958417 39.322998,30.7746109 C39.3175718,26.0554672 35.4933373,22.2312326 30.7746109,22.2262238 Z M30.7746109,37.6133206 C26.9975428,37.6133206 23.9359012,34.5512616 23.9359012,30.7746109 C23.9359012,26.9975428 26.9975428,23.9359012 30.7746109,23.9359012 C34.5512616,23.9359012 37.6133206,26.9975428 37.6133206,30.7746109 C37.6087293,34.549592 34.549592,37.6091466 30.7746109,37.6133206 Z" id="Shape" fill="#004FAC"></path>
                    <path d="M43.9507308,39.322998 L44.2011719,39.072557 C44.5350932,38.7386356 44.5350932,38.197683 44.2011719,37.8637616 L43.0958921,36.7584819 L52.1455787,36.7584819 C52.61766,36.7584819 53.0004174,36.3757245 53.0004174,35.9036432 C53.0004174,35.4315619 52.61766,35.0488045 52.1455787,35.0488045 L41.939272,35.0488045 C43.8639113,30.0625237 42.2489841,24.4050608 37.9827212,21.1860588 C33.7160408,17.9670567 27.8327636,17.9670567 23.5660834,21.1860588 C19.2998205,24.4050608 17.6848932,30.0625237 19.6095325,35.0488045 L6.83912705,35.0488045 L6.83912705,18.806869 L36.7584819,18.806869 C37.1082646,18.806869 37.422568,18.5939942 37.55238,18.2688382 C37.682192,17.9440997 37.6007986,17.5730295 37.3474357,17.3321888 L19.3958228,0.235414567 C19.0656581,-0.0784715222 18.5476626,-0.0784715222 18.2174978,0.235414567 L0.265884865,17.3321888 C0.0125221048,17.5730295 -0.068871256,17.9440997 0.0609405968,18.2688382 C0.190752556,18.5939942 0.505473502,18.806869 0.855256085,18.806869 L5.12944963,18.806869 L5.12944963,35.0488045 L0.855256085,35.0488045 C0.382757345,35.0488045 -8.90147942e-05,35.4315619 -8.90147942e-05,35.9036432 C-8.90147942e-05,36.3757245 0.382757345,36.7584819 0.855256085,36.7584819 L20.4255529,36.7584819 C23.4475413,42.0102303 29.924781,44.1652753 35.4904155,41.7702243 C35.5217207,41.8319997 35.560539,41.8891838 35.6060358,41.9413589 L37.8637616,44.1990849 C38.1972656,44.5325888 38.7386356,44.5325888 39.0721396,44.1990849 L39.322998,43.9511482 L48.1218261,52.7499763 C48.4553301,53.0834803 48.9967001,53.0834803 49.3302041,52.7499763 L52.749559,49.3306215 C53.0834803,48.9967001 53.0834803,48.4557475 52.749559,48.1218261 L43.9507308,39.322998 Z M2.99235286,17.0971916 L18.806869,2.03566813 L34.6213851,17.0971916 L2.99235286,17.0971916 Z M20.5165464,30.7746109 C20.5165464,25.1092175 25.1092175,20.5165464 30.7746109,20.5165464 C36.439587,20.5165464 41.0326754,25.1092175 41.0326754,30.7746109 C41.0326754,36.4400045 36.439587,41.0326754 30.7746109,41.0326754 C25.1117218,41.0264144 20.5223901,36.4375 20.5165464,30.7746109 Z M37.0343845,40.9546214 C38.6284416,39.9708055 39.9708055,38.6284416 40.9546214,37.0343845 L42.3883962,38.4681593 L38.4681593,42.3883962 L37.0343845,40.9546214 Z M48.7262238,50.9367833 L40.531376,42.7423529 L42.7423529,40.5317934 L50.9367833,48.7262238 L48.7262238,50.9367833 Z" id="Shape" fill="#004FAC"></path>
                </g>
            </g>
        </g>
    </g>
</svg>