<?xml version="1.0" encoding="UTF-8"?>
<svg width="102px" height="102px" viewBox="0 0 102 102" version="1.1" xmlns="http://www.w3.org/2000/svg" xmlns:xlink="http://www.w3.org/1999/xlink">
    <title>Group 55</title>
    <g id="Home-page" stroke="none" stroke-width="1" fill="none" fill-rule="evenodd">
        <g transform="translate(-1415.000000, -1127.000000)" id="Group-55">
            <g transform="translate(1415.000000, 1127.000000)">
                <circle id="Oval-Copy-6" fill="#DDF9FF" cx="51" cy="51" r="51"></circle>
                <g id="user" transform="translate(35.000000, 25.000000)" fill-rule="nonzero">
                    <path d="M0.838709677,51.1612903 L31.0322581,51.1612903 L31.0322581,32.7096774 C31.0322581,25.2984816 25.024099,19.2903226 17.6129032,19.2903226 L14.2580645,19.2903226 C6.84686873,19.2903226 0.838709677,25.2984816 0.838709677,32.7096774 L0.838709677,51.1612903 Z M11.7419355,25.1612903 L15.9354839,21.8064516 L20.1290323,25.1612903 L17.6129032,28.516129 L20.9677419,31.0322581 L15.9354839,48.6451613 L10.9032258,31.0322581 L14.2580645,28.516129 L11.7419355,25.1612903 Z" id="Shape" fill="#57A4FF"></path>
                    <g id="Group" fill="#004FAC">
                        <path d="M25.1612903,9.22580645 C25.1612903,4.1304814 21.0308089,0 15.9354839,0 C10.8401588,0 6.70967742,4.1304814 6.70967742,9.22580645 C6.70967742,14.3211315 10.8401588,18.4516129 15.9354839,18.4516129 C21.0283518,18.44547 25.1551474,14.3186744 25.1612903,9.22580645 Z M15.9354839,16.7741935 C11.7665071,16.7741935 8.38709677,13.3947833 8.38709677,9.22580645 C8.38709677,5.05682964 11.7665071,1.67741935 15.9354839,1.67741935 C20.1044607,1.67741935 23.483871,5.05682964 23.483871,9.22580645 C23.4793662,13.3927357 20.1024131,16.7696887 15.9354839,16.7741935 Z" id="Shape"></path>
                        <path d="M17.6129032,18.4516129 L14.2580645,18.4516129 C6.38738027,18.4602129 0.00860004516,24.8389932 0,32.7096774 L0,51.1612903 C0,51.6244645 0.375535508,52 0.838709677,52 L31.0322581,52 C31.4954322,52 31.8709677,51.6244645 31.8709677,51.1612903 L31.8709677,32.7096774 C31.8623677,24.8389932 25.4835875,18.4602129 17.6129032,18.4516129 Z M30.1935484,50.3225806 L1.67741935,50.3225806 L1.67741935,32.7096774 C1.68520038,25.7649319 7.313319,20.1368133 14.2580645,20.1290323 L17.6129032,20.1290323 C24.5576487,20.1368133 30.1857674,25.7649319 30.1935484,32.7096774 L30.1935484,50.3225806 Z" id="Shape"></path>
                        <path d="M18.7870149,28.3482233 L20.7998362,25.664598 C21.0717616,25.3021673 21.0070565,24.7894405 20.6532258,24.5064579 L16.4596774,21.1516192 C16.1533518,20.9059035 15.7176159,20.9059035 15.4112903,21.1516192 L11.2177419,24.5064579 C10.8639113,24.7894405 10.7992061,25.3021673 11.0711315,25.664598 L13.0839528,28.3482233 L10.3999181,30.3614541 C10.1218498,30.5694935 10.0014491,30.9278289 10.0964592,31.2620022 L15.1287173,48.8749055 C15.2310988,49.235698 15.5603579,49.48469 15.9354839,49.48469 C16.3106099,49.48469 16.639869,49.235698 16.7422505,48.8749055 L21.7745085,31.2620022 C21.8695186,30.9278289 21.7491179,30.5694935 21.4710496,30.3614541 L18.7870149,28.3482233 Z M15.9354839,45.5921434 L11.8676601,31.3570123 L14.7613722,29.186933 C15.1319935,28.9092742 15.2069367,28.3834425 14.9288685,28.0128213 L12.9008947,25.3087198 L15.9354839,22.8798198 L18.970073,25.3124055 L16.9420992,28.0128213 C16.664031,28.3834425 16.7389742,28.9092742 17.1095955,29.186933 L20.0033077,31.3570123 L15.9354839,45.5921434 Z" id="Shape"></path>
                        <path d="M21.8064516,36.9032258 C21.8064516,37.3664 22.1819871,37.7419355 22.6451613,37.7419355 L28.516129,37.7419355 C28.9793032,37.7419355 29.3548387,37.3664 29.3548387,36.9032258 C29.3548387,36.4400516 28.9793032,36.0645161 28.516129,36.0645161 L22.6451613,36.0645161 C22.1819871,36.0645161 21.8064516,36.4400516 21.8064516,36.9032258 Z" id="Path"></path>
                    </g>
                </g>
            </g>
        </g>
    </g>
</svg>