<?xml version="1.0" encoding="UTF-8"?>
<svg width="102px" height="102px" viewBox="0 0 102 102" version="1.1" xmlns="http://www.w3.org/2000/svg" xmlns:xlink="http://www.w3.org/1999/xlink">
    <title>Group 88</title>
    <g id="Home-page" stroke="none" stroke-width="1" fill="none" fill-rule="evenodd">
        <g transform="translate(-1015.000000, -1127.000000)" id="Group-88">
            <g transform="translate(1015.000000, 1127.000000)">
                <circle id="Oval-Copy-6" fill="#DDF9FF" cx="51" cy="51" r="51"></circle>
                <g id="list" transform="translate(34.000000, 25.000000)" fill-rule="nonzero">
                    <path d="M25.1612903,4.19354839 L25.1612903,7.5483871 L8.38709677,7.5483871 L8.38709677,4.19354839 C8.38709677,2.34085181 9.88923891,0.838709677 11.7419355,0.838709677 L21.8064516,0.838709677 C23.6591482,0.838709677 25.1612903,2.34085181 25.1612903,4.19354839 Z" id="Path" fill="#57A4FF"></path>
                    <g id="Group" fill="#004FAC">
                        <path d="M29.3548387,3.35483871 L25.9160472,3.35483871 C25.5147115,1.40344635 23.7983871,0.00245715726 21.8064516,0 L11.7419355,0 C9.75,0.00245715726 8.03367563,1.40344635 7.63233994,3.35483871 L4.19354839,3.35483871 C1.87849675,3.35770542 0.00286668871,5.23333546 0,7.5483871 L0,47.8064516 C0.00286668871,50.1215033 1.87849675,51.9971333 4.19354839,52 L29.3548387,52 C31.6698903,51.9971333 33.5455204,50.1215033 33.5483871,47.8064516 L33.5483871,7.5483871 C33.5455204,5.23333546 31.6698903,3.35770542 29.3548387,3.35483871 Z M11.7419355,1.67741935 L21.8064516,1.67741935 C23.195974,1.67741935 24.3225806,2.80402598 24.3225806,4.19354839 L24.3225806,6.70967742 L9.22580645,6.70967742 L9.22580645,4.19354839 C9.22580645,2.80402598 10.3524131,1.67741935 11.7419355,1.67741935 Z M31.8709677,47.8064516 C31.8709677,49.195974 30.7443611,50.3225806 29.3548387,50.3225806 L4.19354839,50.3225806 C2.80402598,50.3225806 1.67741935,49.195974 1.67741935,47.8064516 L1.67741935,7.5483871 C1.67741935,6.15886469 2.80402598,5.03225806 4.19354839,5.03225806 L7.5483871,5.03225806 L7.5483871,7.5483871 C7.5483871,8.01156127 7.9239226,8.38709677 8.38709677,8.38709677 L25.1612903,8.38709677 C25.6244645,8.38709677 26,8.01156127 26,7.5483871 L26,5.03225806 L29.3548387,5.03225806 C30.7443611,5.03225806 31.8709677,6.15886469 31.8709677,7.5483871 L31.8709677,47.8064516 Z" id="Shape"></path>
                        <path d="M27.9231351,12.8263609 L23.483871,17.265625 L22.3994456,16.1811996 C22.0701865,15.8634073 21.5472215,15.8679121 21.2236958,16.1914377 C20.9001701,16.5149635 20.8956653,17.0379284 21.2134577,17.3671875 L22.890877,19.0446069 C23.218498,19.3718183 23.749244,19.3718183 24.0768649,19.0446069 L29.109123,14.0123488 C29.4269153,13.6830897 29.4224105,13.1601248 29.0988849,12.836599 C28.7753591,12.5130734 28.2523942,12.5085685 27.9231351,12.8263609 Z" id="Path"></path>
                        <path d="M27.9231351,22.0521673 L23.483871,26.4914315 L22.3994456,25.407006 C22.0701865,25.0892137 21.5472215,25.0937185 21.2236958,25.4172442 C20.9001701,25.7407699 20.8956653,26.2637349 21.2134577,26.592994 L22.890877,28.2704133 C23.218498,28.5976248 23.749244,28.5976248 24.0768649,28.2704133 L29.109123,23.2381552 C29.4269153,22.9088962 29.4224105,22.3859312 29.0988849,22.0624055 C28.7753591,21.7388798 28.2523942,21.734375 27.9231351,22.0521673 Z" id="Path"></path>
                        <path d="M27.9231351,31.2779738 L23.483871,35.7172379 L22.3994456,34.6328125 C22.0701865,34.3150202 21.5472215,34.319525 21.2236958,34.6430506 C20.9001701,34.9665764 20.8956653,35.4895413 21.2134577,35.8188004 L22.890877,37.4962198 C23.218498,37.8234312 23.749244,37.8234312 24.0768649,37.4962198 L29.109123,32.4639617 C29.4269153,32.1347026 29.4224105,31.6117377 29.0988849,31.2882119 C28.7753591,30.9646863 28.2523942,30.9601815 27.9231351,31.2779738 L27.9231351,31.2779738 Z" id="Path"></path>
                        <path d="M27.9231351,40.5037802 L23.483871,44.9430444 L22.3994456,43.858619 C22.0701865,43.5408266 21.5472215,43.5453314 21.2236958,43.8688571 C20.9001701,44.1923828 20.8956653,44.7153478 21.2134577,45.0446069 L22.890877,46.7220262 C23.218498,47.0492377 23.749244,47.0492377 24.0768649,46.7220262 L29.109123,41.6897681 C29.4269153,41.3605091 29.4224105,40.8375441 29.0988849,40.5140184 C28.7753591,40.1904927 28.2523942,40.1859879 27.9231351,40.5037802 L27.9231351,40.5037802 Z" id="Path"></path>
                        <path d="M16.7741935,12.5806452 L5.03225806,12.5806452 C4.5690839,12.5806452 4.19354839,12.9561807 4.19354839,13.4193548 C4.19354839,13.882529 4.5690839,14.2580645 5.03225806,14.2580645 L16.7741935,14.2580645 C17.2373677,14.2580645 17.6129032,13.882529 17.6129032,13.4193548 C17.6129032,12.9561807 17.2373677,12.5806452 16.7741935,12.5806452 Z" id="Path"></path>
                        <path d="M16.7741935,15.0967742 L5.03225806,15.0967742 C4.5690839,15.0967742 4.19354839,15.4723097 4.19354839,15.9354839 C4.19354839,16.398658 4.5690839,16.7741935 5.03225806,16.7741935 L16.7741935,16.7741935 C17.2373677,16.7741935 17.6129032,16.398658 17.6129032,15.9354839 C17.6129032,15.4723097 17.2373677,15.0967742 16.7741935,15.0967742 Z" id="Path"></path>
                        <path d="M5.03225806,19.2903226 L13.4193548,19.2903226 C13.882529,19.2903226 14.2580645,18.9147871 14.2580645,18.4516129 C14.2580645,17.9884387 13.882529,17.6129032 13.4193548,17.6129032 L5.03225806,17.6129032 C4.5690839,17.6129032 4.19354839,17.9884387 4.19354839,18.4516129 C4.19354839,18.9147871 4.5690839,19.2903226 5.03225806,19.2903226 Z" id="Path"></path>
                        <path d="M16.7741935,21.8064516 L5.03225806,21.8064516 C4.5690839,21.8064516 4.19354839,22.1819871 4.19354839,22.6451613 C4.19354839,23.1083355 4.5690839,23.483871 5.03225806,23.483871 L16.7741935,23.483871 C17.2373677,23.483871 17.6129032,23.1083355 17.6129032,22.6451613 C17.6129032,22.1819871 17.2373677,21.8064516 16.7741935,21.8064516 Z" id="Path"></path>
                        <path d="M16.7741935,24.3225806 L5.03225806,24.3225806 C4.5690839,24.3225806 4.19354839,24.6981162 4.19354839,25.1612903 C4.19354839,25.6244645 4.5690839,26 5.03225806,26 L16.7741935,26 C17.2373677,26 17.6129032,25.6244645 17.6129032,25.1612903 C17.6129032,24.6981162 17.2373677,24.3225806 16.7741935,24.3225806 Z" id="Path"></path>
                        <path d="M5.03225806,28.516129 L13.4193548,28.516129 C13.882529,28.516129 14.2580645,28.1405935 14.2580645,27.6774194 C14.2580645,27.2142452 13.882529,26.8387097 13.4193548,26.8387097 L5.03225806,26.8387097 C4.5690839,26.8387097 4.19354839,27.2142452 4.19354839,27.6774194 C4.19354839,28.1405935 4.5690839,28.516129 5.03225806,28.516129 Z" id="Path"></path>
                        <path d="M16.7741935,31.0322581 L5.03225806,31.0322581 C4.5690839,31.0322581 4.19354839,31.4077936 4.19354839,31.8709677 C4.19354839,32.3341419 4.5690839,32.7096774 5.03225806,32.7096774 L16.7741935,32.7096774 C17.2373677,32.7096774 17.6129032,32.3341419 17.6129032,31.8709677 C17.6129032,31.4077936 17.2373677,31.0322581 16.7741935,31.0322581 Z" id="Path"></path>
                        <path d="M16.7741935,33.5483871 L5.03225806,33.5483871 C4.5690839,33.5483871 4.19354839,33.9239226 4.19354839,34.3870968 C4.19354839,34.8502709 4.5690839,35.2258065 5.03225806,35.2258065 L16.7741935,35.2258065 C17.2373677,35.2258065 17.6129032,34.8502709 17.6129032,34.3870968 C17.6129032,33.9239226 17.2373677,33.5483871 16.7741935,33.5483871 Z" id="Path"></path>
                        <path d="M5.03225806,37.7419355 L13.4193548,37.7419355 C13.882529,37.7419355 14.2580645,37.3664 14.2580645,36.9032258 C14.2580645,36.4400516 13.882529,36.0645161 13.4193548,36.0645161 L5.03225806,36.0645161 C4.5690839,36.0645161 4.19354839,36.4400516 4.19354839,36.9032258 C4.19354839,37.3664 4.5690839,37.7419355 5.03225806,37.7419355 Z" id="Path"></path>
                        <path d="M16.7741935,40.2580645 L5.03225806,40.2580645 C4.5690839,40.2580645 4.19354839,40.6336 4.19354839,41.0967742 C4.19354839,41.5599484 4.5690839,41.9354839 5.03225806,41.9354839 L16.7741935,41.9354839 C17.2373677,41.9354839 17.6129032,41.5599484 17.6129032,41.0967742 C17.6129032,40.6336 17.2373677,40.2580645 16.7741935,40.2580645 Z" id="Path"></path>
                        <path d="M16.7741935,42.7741935 L5.03225806,42.7741935 C4.5690839,42.7741935 4.19354839,43.1497291 4.19354839,43.6129032 C4.19354839,44.0760774 4.5690839,44.4516129 5.03225806,44.4516129 L16.7741935,44.4516129 C17.2373677,44.4516129 17.6129032,44.0760774 17.6129032,43.6129032 C17.6129032,43.1497291 17.2373677,42.7741935 16.7741935,42.7741935 Z" id="Path"></path>
                        <path d="M13.4193548,45.2903226 L5.03225806,45.2903226 C4.5690839,45.2903226 4.19354839,45.6658581 4.19354839,46.1290323 C4.19354839,46.5922064 4.5690839,46.9677419 5.03225806,46.9677419 L13.4193548,46.9677419 C13.882529,46.9677419 14.2580645,46.5922064 14.2580645,46.1290323 C14.2580645,45.6658581 13.882529,45.2903226 13.4193548,45.2903226 Z" id="Path"></path>
                        <path d="M12.5806452,4.19354839 L15.9354839,4.19354839 C16.398658,4.19354839 16.7741935,3.81801288 16.7741935,3.35483871 C16.7741935,2.89166454 16.398658,2.51612903 15.9354839,2.51612903 L12.5806452,2.51612903 C12.117471,2.51612903 11.7419355,2.89166454 11.7419355,3.35483871 C11.7419355,3.81801288 12.117471,4.19354839 12.5806452,4.19354839 Z" id="Path"></path>
                        <path d="M18.4516129,4.19354839 C18.6739857,4.19191028 18.8873488,4.10468123 19.0470641,3.95028987 C19.0806452,3.90851815 19.1142263,3.86633692 19.1478075,3.81596527 C19.1809791,3.77337455 19.2063697,3.7250504 19.2231603,3.67345005 C19.2473224,3.62594511 19.2645224,3.57516376 19.273532,3.5227444 C19.2833607,3.46704884 19.289094,3.41094377 19.2903226,3.35483871 C19.288275,2.97643649 19.0327306,2.64594881 18.6666141,2.54889113 C18.3009073,2.45183344 17.9151335,2.61195811 17.725523,2.93957908 C17.5359123,3.26760965 17.5895603,3.68164068 17.8561617,3.95028987 C18.0171056,4.10345262 18.2296496,4.19027218 18.4516129,4.19354839 Z" id="Path"></path>
                    </g>
                </g>
            </g>
        </g>
    </g>
</svg>