<svg id="Layer_1" data-name="Layer 1" xmlns="http://www.w3.org/2000/svg" viewBox="0 0 92.6 92.6"><defs><style>.cls-1{fill:#e2f8fe;}.cls-2{fill:#68a4f8;}.cls-3{fill:#1b51a6;}</style></defs><circle class="cls-1" cx="46.3" cy="46.3" r="46.3"/><polygon class="cls-2" points="32.77 38.74 41.58 38.74 41.58 32.51 37.17 28.1 32.5 32.77 32.77 38.74"/><polygon class="cls-2" points="49.58 63.78 47.64 68.86 53.32 65.92 49.58 63.78"/><path class="cls-3" d="M73.24,37.8h0l-1.5-1.15a1,1,0,0,0-1.35.18L68.8,38.9l-.07-.06a1.18,1.18,0,0,0-1.64.22l-18,23.4h0l0,.05s0,0,0,0a.54.54,0,0,0,0,.11l-2.35,6.76h0a.91.91,0,0,0,.31,1,.88.88,0,0,0,.56.19.91.91,0,0,0,.52-.16h0l5.91-4,.1-.07,0,0,0,0h0L70.32,45.26l.48.37-6.62,8.63a.78.78,0,0,0,.15,1.09.83.83,0,0,0,.47.16.8.8,0,0,0,.62-.31l6.82-8.89A1.22,1.22,0,0,0,72,44.6L71.27,44l.85-1.11a1.18,1.18,0,0,0-.22-1.64l-.07-.06,1.59-2.07A1,1,0,0,0,73.24,37.8ZM48.75,68.17l1.38-4,2.09,1.6Zm4.66-3.41-2.57-2L68.09,40.31l2.56,2ZM70.6,40.27,70,39.85l1.23-1.61.56.43Z"/><path class="cls-3" d="M61,44.05H30.36a.77.77,0,0,0-.78.77.78.78,0,0,0,.78.78H61a.78.78,0,0,0,.78-.78A.77.77,0,0,0,61,44.05Z"/><path class="cls-3" d="M53.55,52.06H30.36a.78.78,0,1,0,0,1.55H53.55a.78.78,0,0,0,0-1.55Z"/><path class="cls-3" d="M44.37,68.08h-14a.78.78,0,0,0,0,1.56h14a.78.78,0,0,0,0-1.56Z"/><path class="cls-3" d="M61,68.08H54.1a.78.78,0,0,0,0,1.56H61a.78.78,0,0,0,0-1.56Z"/><path class="cls-3" d="M66,38.8A.78.78,0,0,0,66.8,38V32.71s0-.07,0-.1h0a.36.36,0,0,0,0-.1v0a.36.36,0,0,0,0-.09h0l-.06-.09v0l-.07-.08-12.4-12.4-.08-.07h0L54,19.68h0l-.08,0h0l-.09,0H26.41A1.61,1.61,0,0,0,24.8,21.2V72.53a1.62,1.62,0,0,0,1.61,1.62H65.19a1.62,1.62,0,0,0,1.61-1.62V57a.78.78,0,0,0-.78-.78.77.77,0,0,0-.77.78V72.53a.06.06,0,0,1-.06.06H26.41a.06.06,0,0,1-.06-.06V21.2a.06.06,0,0,1,.06-.06H52.85V31.9a1.64,1.64,0,0,0,1.64,1.64H65.25V38A.77.77,0,0,0,66,38.8ZM54.49,32a.09.09,0,0,1-.09-.08V22.24h0L64.15,32Z"/><path class="cls-3" d="M43.93,30.66l-6.49-6.1a.77.77,0,0,0-1.06,0l-6.49,6.1a.76.76,0,0,0,0,1.09.78.78,0,0,0,1.1,0l6-5.6,6,5.6a.77.77,0,0,0,.53.21.75.75,0,0,0,.57-.25A.76.76,0,0,0,43.93,30.66Z"/><path class="cls-3" d="M41.76,31.66l-4-3.74a1.29,1.29,0,0,0-1.76,0l-4,3.74a1.27,1.27,0,0,0-.41.93V38a1.29,1.29,0,0,0,1.29,1.29h7.94A1.29,1.29,0,0,0,42.17,38V32.59A1.27,1.27,0,0,0,41.76,31.66Zm-4.28,6.1H36.34v-2.7h1.14Zm1.55,0V34.57A1.06,1.06,0,0,0,38,33.51H35.85a1.06,1.06,0,0,0-1.06,1.06v3.19H33.2v-5l3.71-3.48,3.71,3.48v5Z"/><path class="cls-3" d="M46.64,60.07H38a.78.78,0,0,0-.78.78.77.77,0,0,0,.78.77h8.66a.76.76,0,0,0,.77-.77A.77.77,0,0,0,46.64,60.07Z"/><path class="cls-3" d="M33.15,60.07h-2.7a.77.77,0,0,0-.77.78.76.76,0,0,0,.77.77h2.7a.77.77,0,0,0,.78-.77A.78.78,0,0,0,33.15,60.07Z"/></svg>