<?xml version="1.0" encoding="UTF-8"?>
<svg width="102px" height="102px" viewBox="0 0 102 102" version="1.1" xmlns="http://www.w3.org/2000/svg" xmlns:xlink="http://www.w3.org/1999/xlink">
    <title>Group 90</title>
    <g id="Home-page" stroke="none" stroke-width="1" fill="none" fill-rule="evenodd">
        <g transform="translate(-615.000000, -1127.000000)" id="Group-90">
            <g transform="translate(615.000000, 1127.000000)">
                <circle id="Oval-Copy-6" fill="#DDF9FF" cx="51" cy="51" r="51"></circle>
                <g id="Group-72" transform="translate(31.000000, 28.000000)" fill-rule="nonzero">
                    <g id="sale" transform="translate(0.000000, 0.581395)">
                        <path d="M35.7253609,26.2570795 L41.7199491,17.910705 L35.7253609,9.56433043 L8.15025505,9.56433043 L8.15025505,26.2570795 L35.7253609,26.2570795 Z M32.146779,17.910705 L32.146779,14.3336873 L32.146779,21.4877226 L32.146779,17.910705 Z M26.1521908,14.3336873 L26.1521908,21.4877226 L26.1521908,14.3336873 Z M18.9405138,14.3517587 L22.5372668,14.3517587 L18.9405138,14.3517587 Z M11.747008,17.910705 L11.747008,14.3336873 L11.747008,17.910705 L15.3437609,17.910705 L15.3437609,21.4877226 L15.3437609,17.910705 L11.747008,17.910705 Z" id="Shape" fill="#57A4FF"></path>
                        <path d="M3.37275557,35.7957933 L3.37275557,19.1030442 L3.37275557,35.7957933 Z" id="Shape" fill="#57A4FF"></path>
                        <path d="M9.3491727,4.79497354 C9.3491727,6.77036754 7.73871248,8.37199121 5.75241977,8.37199121 C3.7661269,8.37199121 2.15566683,6.77036754 2.15566683,4.79497354 C2.15566683,2.81957955 3.7661269,1.21795588 5.75241977,1.21795588 C7.73871248,1.21795588 9.3491727,2.81957955 9.3491727,4.79497354 Z" id="Path" fill="#57A4FF"></path>
                        <g id="Group" transform="translate(0.310345, 0.000000)" fill="#004FAC">
                            <path d="M36.3908927,8.87151621 C36.1660957,8.55771205 35.8025567,8.37199121 35.415016,8.37199121 L9.03882787,8.37199121 C9.0341446,8.24681884 9.00897197,8.1233931 8.96448089,8.0057894 C10.7283182,6.10724525 10.6504588,3.15667159 8.78827266,1.35302556 C6.92608666,-0.451202623 3.95806307,-0.451202623 2.09587691,1.35302556 C0.234276423,3.15667159 0.155831541,6.10724525 1.91966884,8.0057894 C1.87517775,8.1233931 1.85059065,8.24681884 1.84532201,8.37199121 L1.84532201,17.910705 L1.84532201,36.9881325 L1.84532201,48.2780945 L9.03882787,48.2780945 L9.03882787,27.4494187 L35.415016,27.4494187 C35.8025567,27.4494187 36.1660957,27.2631157 36.3908927,26.9498937 L42.385481,18.6035192 C42.6828687,18.188995 42.6828687,17.6324149 42.385481,17.2178908 L36.3908927,8.87151621 Z M7.83991023,4.79497354 C7.83991023,6.11190282 6.76627003,7.17965199 5.44207494,7.17965199 C4.11787969,7.17965199 3.04423965,6.11190282 3.04423965,4.79497354 C3.04423965,3.47804427 4.11787969,2.4102951 5.44207494,2.4102951 C6.76627003,2.4102951 7.83991023,3.47804427 7.83991023,4.79497354 Z M1.8634931,20.2953834 L1.8634931,34.6034541 L1.8634931,20.2953834 Z M4.24315729,48.2780945 L4.24315729,9.56433043 L6.64099258,9.56433043 L6.64099258,48.2780945 L4.24315729,48.2780945 Z M34.7974095,25.0647403 L9.03882787,25.0647403 L9.03882787,10.7566696 L34.7974095,10.7566696 L39.9361297,17.910705 L34.7974095,25.0647403 Z" id="Shape"></path>
                        </g>
                    </g>
                    <g id="Group-28" transform="translate(11.000000, 14.581395)" fill="#004FAC">
                        <path d="M4.31069416,0.0121874505 L1.07767354,0.0121874505 C0.482532504,0.0121874505 -7.50510765e-15,0.489417399 -7.50510765e-15,1.07801842 L-7.50510765e-15,7.47300427 C-7.50510765e-15,8.06160529 0.482532504,8.53883524 1.07767354,8.53883524 C1.67281444,8.53883524 2.15534708,8.06160529 2.15534708,7.47300427 L2.15534708,6.19379886 L3.4140361,8.0610849 C3.74449445,8.55080506 4.41383075,8.68299301 4.90899238,8.35668646 C5.40415387,8.02985925 5.53781058,7.36787829 5.20735222,6.87815814 L4.16967034,5.34134232 L4.31069416,5.34134232 C4.90583506,5.34134232 5.3883677,4.86411237 5.3883677,4.27551135 L5.3883677,1.07801842 C5.3883677,0.489417399 4.90583506,0.0121874505 4.31069416,0.0121874505 Z M3.23302062,3.20968037 L2.15534708,3.20968037 L2.15534708,2.1438494 L3.23302062,2.1438494 L3.23302062,3.20968037 Z" id="Shape"></path>
                        <path d="M10.7767354,2.1438494 C11.3718763,2.1438494 11.8544089,1.66661945 11.8544089,1.07801842 C11.8544089,0.489417399 11.3718763,0.0121874505 10.7767354,0.0121874505 L7.54371478,0.0121874505 C6.94857374,0.0121874505 6.46604124,0.489417399 6.46604124,1.07801842 L6.46604124,7.47300427 C6.46604124,8.06160529 6.94857374,8.53883524 7.54371478,8.53883524 L10.7767354,8.53883524 C11.3718763,8.53883524 11.8544089,8.06160529 11.8544089,7.47300427 C11.8544089,6.88440324 11.3718763,6.40717329 10.7767354,6.40717329 L8.62138832,6.40717329 L8.62138832,5.34134232 L10.7767354,5.34134232 C11.3718763,5.34134232 11.8544089,4.86411237 11.8544089,4.27551135 C11.8544089,3.68691032 11.3718763,3.20968037 10.7767354,3.20968037 L8.62138832,3.20968037 L8.62138832,2.1438494 L10.7767354,2.1438494 Z" id="Path"></path>
                        <path d="M17.2427766,0.0121874505 C16.6476356,0.0121874505 16.1651031,0.489417399 16.1651031,1.07801842 L16.1651031,2.95831493 L14.9795569,0.601308868 C14.7596021,0.152181818 14.2544426,-0.0856525022 13.7629645,0.0283206675 C13.2714865,0.142814229 12.9262942,0.578930547 12.9320825,1.07801842 L12.9320825,7.47300427 C12.9320825,8.06160529 13.414615,8.53883524 14.009756,8.53883524 C14.6048969,8.53883524 15.0874296,8.06160529 15.0874296,7.47300427 L15.0874296,5.59270776 L16.2782377,7.94919343 C16.5013498,8.39207524 17.0033521,8.62470538 17.4900942,8.51125273 C17.9773626,8.39779996 18.3209764,7.96792874 18.3204508,7.47300427 L18.3204508,1.07801842 C18.3204508,0.489417399 17.8379175,0.0121874505 17.2427766,0.0121874505 Z" id="Path"></path>
                        <path d="M23.7088179,0.0121874505 L19.3981237,0.0121874505 C18.8029827,0.0121874505 18.3204502,0.489417399 18.3204502,1.07801842 C18.3204502,1.66661945 18.8029827,2.1438494 19.3981237,2.1438494 L20.4757973,2.1438494 L20.4757973,7.47300427 C20.4757973,8.06160529 20.9583298,8.53883524 21.5534708,8.53883524 C22.1486117,8.53883524 22.6311443,8.06160529 22.6311443,7.47300427 L22.6311443,2.1438494 L23.7088179,2.1438494 C24.3039588,2.1438494 24.7864914,1.66661945 24.7864914,1.07801842 C24.7864914,0.489417399 24.3039588,0.0121874505 23.7088179,0.0121874505 Z" id="Path"></path>
                    </g>
                </g>
            </g>
        </g>
    </g>
</svg>