<?xml version="1.0" encoding="UTF-8"?>
<svg width="102px" height="102px" viewBox="0 0 102 102" version="1.1" xmlns="http://www.w3.org/2000/svg" xmlns:xlink="http://www.w3.org/1999/xlink">
    <title>Group 91</title>
    <g id="Home-page" stroke="none" stroke-width="1" fill="none" fill-rule="evenodd">
        <g transform="translate(-415.000000, -1127.000000)" id="Group-91">
            <g transform="translate(415.000000, 1127.000000)">
                <circle id="Oval-Copy-6" fill="#DDF9FF" cx="51" cy="51" r="51"></circle>
                <g id="price-copy" transform="translate(36.000000, 24.000000)" fill-rule="nonzero">
                    <path d="M1.1565316,16.8541588 L1.1565316,51.4892477 L29.0113705,51.4892477 L29.0113705,16.8541588 L20.2151267,6.75268822 L9.95277545,6.75268822 L1.1565316,16.8541588 Z M15.0839511,10.8196482 C16.4412504,10.8196482 17.541731,11.9122465 17.541731,13.2598241 C17.541731,14.6074018 16.4412504,15.7000001 15.0839511,15.7000001 C13.7266517,15.7000001 12.6261712,14.6074018 12.6261712,13.2598241 C12.6261712,11.9122465 13.7266517,10.8196482 15.0839511,10.8196482 Z M15.0839511,25.460704 L11.8069112,25.460704 C9.99717872,25.460704 8.52987132,26.9175018 8.52987132,28.714272 C8.52987132,30.5110422 9.99717872,31.9678399 11.8069112,31.9678399 L18.3609909,31.9678399 C20.1707234,31.9678399 21.6380308,33.4246377 21.6380308,35.2214079 C21.6380308,37.0181781 20.1707234,38.4749758 18.3609909,38.4749758 L15.0839511,38.4749758 L18.3609909,38.4749758 C20.1707234,38.4749758 21.6380308,37.0181781 21.6380308,35.2214079 C21.6380308,33.4246377 20.1707234,31.9678399 18.3609909,31.9678399 L11.8069112,31.9678399 C9.99717872,31.9678399 8.52987132,30.5110422 8.52987132,28.714272 C8.52987132,26.9175018 9.99717872,25.460704 11.8069112,25.460704 L15.0839511,25.460704 Z" id="Shape" fill="#57A4FF"></path>
                    <g id="Group" transform="translate(0.312446, 0.000000)" fill="#004FAC">
                        <path d="M14.7715055,0 C14.3183107,0 13.9508663,0.366132078 13.9508663,0.817708339 L13.9508663,5.72395838 L9.63169153,5.72395838 C9.39327338,5.72395838 9.16647568,5.82697041 9.01060234,6.00704195 L0.199549909,16.1621172 C0.0705236807,16.3106462 1.36663879e-16,16.5003003 1.36663879e-16,16.6967418 L1.36663879e-16,51.5156254 C1.36663879e-16,51.9672016 0.367444379,52.3333337 0.820639194,52.3333337 L28.7223718,52.3333337 C29.1755666,52.3333337 29.543011,51.9672016 29.543011,51.5156254 L29.543011,16.6967418 C29.543011,16.5003003 29.4724873,16.3106462 29.3434611,16.1621172 L20.5324086,6.00704195 C20.3765353,5.82697041 20.1497376,5.72395838 19.9113194,5.72395838 L15.5921447,5.72395838 L15.5921447,0.817708339 C15.5921447,0.366132078 15.2247003,0 14.7715055,0 Z M27.9017326,17.0009869 L27.9017326,50.697917 L1.64127839,50.697917 L1.64127839,17.0009869 L10.0067493,7.35937505 L19.5362617,7.35937505 L27.9017326,17.0009869 Z" id="Shape"></path>
                        <path d="M11.4889487,13.0833334 C11.4889487,14.8896384 12.9587263,16.3541668 14.7715055,16.3541668 C16.5842846,16.3541668 18.0540623,14.8896384 18.0540623,13.0833334 C18.0540623,11.2770285 16.5842846,9.81250007 14.7715055,9.81250007 C12.9587263,9.81250007 11.4889487,11.2770285 11.4889487,13.0833334 Z M16.4127839,13.0833334 C16.4127839,13.986486 15.6778951,14.7187501 14.7715055,14.7187501 C13.8651159,14.7187501 13.1302271,13.986486 13.1302271,13.0833334 C13.1302271,12.1801809 13.8651159,11.4479168 14.7715055,11.4479168 C15.6778951,11.4479168 16.4127839,12.1801809 16.4127839,13.0833334 Z" id="Shape"></path>
                        <path d="M15.5921447,22.8958335 C15.5921447,22.4442572 15.2247003,22.0781252 14.7715055,22.0781252 C14.3183107,22.0781252 13.9508663,22.4442572 13.9508663,22.8958335 L13.9508663,24.5312502 L11.4889487,24.5312502 C9.22297474,24.5312502 7.38575274,26.3619107 7.38575274,28.6197919 C7.38575274,30.8776731 9.22297474,32.7083336 11.4889487,32.7083336 L18.0540623,32.7083336 C19.4136466,32.7083336 20.5159798,33.8067299 20.5159798,35.1614586 C20.5159798,36.5161873 19.4136466,37.6145836 18.0540623,37.6145836 L8.20639194,37.6145836 C7.75319712,37.6145836 7.38575274,37.9807157 7.38575274,38.432292 C7.38575274,38.8838682 7.75319712,39.2500003 8.20639194,39.2500003 L13.9508663,39.2500003 L13.9508663,40.885417 C13.9508663,41.3369932 14.3183107,41.7031253 14.7715055,41.7031253 C15.2247003,41.7031253 15.5921447,41.3369932 15.5921447,40.885417 L15.5921447,39.2500003 L18.0540623,39.2500003 C20.3200362,39.2500003 22.1572582,37.4193398 22.1572582,35.1614586 C22.1572582,32.9035774 20.3200362,31.0729169 18.0540623,31.0729169 L11.4889487,31.0729169 C10.1293644,31.0729169 9.02703113,29.9745206 9.02703113,28.6197919 C9.02703113,27.2650632 10.1293644,26.1666669 11.4889487,26.1666669 L21.336619,26.1666669 C21.7898139,26.1666669 22.1572582,25.8005348 22.1572582,25.3489585 C22.1572582,24.8973823 21.7898139,24.5312502 21.336619,24.5312502 L15.5921447,24.5312502 L15.5921447,22.8958335 Z" id="Path"></path>
                        <path d="M7.38575274,47.4270837 L4.92383516,47.4270837 L4.92383516,43.338542 C4.92383516,42.8869657 4.55639078,42.5208336 4.10319597,42.5208336 C3.65000115,42.5208336 3.28255677,42.8869657 3.28255677,43.338542 L3.28255677,48.244792 C3.28255677,48.6963683 3.65000115,49.0625004 4.10319597,49.0625004 L7.38575274,49.0625004 C7.83894756,49.0625004 8.20639194,48.6963683 8.20639194,48.244792 C8.20639194,47.7932158 7.83894756,47.4270837 7.38575274,47.4270837 Z" id="Path"></path>
                        <path d="M12.3095879,47.4270837 L10.6683095,47.4270837 C10.2151147,47.4270837 9.84767032,47.7932158 9.84767032,48.244792 C9.84767032,48.6963683 10.2151147,49.0625004 10.6683095,49.0625004 L12.3095879,49.0625004 C12.7627827,49.0625004 13.1302271,48.6963683 13.1302271,48.244792 C13.1302271,47.7932158 12.7627827,47.4270837 12.3095879,47.4270837 Z" id="Path"></path>
                    </g>
                </g>
            </g>
        </g>
    </g>
</svg>