<?xml version="1.0" encoding="utf-8"?>
<!-- Generator: Adobe Illustrator 27.7.0, SVG Export Plug-In . SVG Version: 6.00 Build 0)  -->
<svg version="1.1" id="Layer_1" xmlns="http://www.w3.org/2000/svg" xmlns:xlink="http://www.w3.org/1999/xlink" x="0px" y="0px"
	 viewBox="0 0 1680 895" style="enable-background:new 0 0 1680 895;" xml:space="preserve">
<style type="text/css">
	.st0{fill:#FFFFFF;}
</style>
<g>
	<path class="st0" d="M1610.3,449.5c0,15.6,0.1,31.2-0.1,46.7c0,3,1.7,7.2-3.2,8.3c-5,1.1-9.8,1.5-13.5-3.6
		c-10.4-14.5-20.9-28.8-31.4-43.2c-7.9-10.8-15.8-21.5-23.8-32.2c-1-1.4-1.8-4-3.9-3.2c-2,0.8-1,3.3-1,5c0,24.1,0,48.2,0.3,72.3
		c0.1,4.6-2.5,5.5-5.8,5.6c-3.5,0.1-7.8,0.8-9.1-4.2c-0.4-1.6-0.2-3.3-0.2-5c0-31.2-0.1-62.3,0-93.5c0-2.9-1.6-6.6,2.5-8.3
		c4.5-1.8,13-0.1,15.4,3.2c12.3,16.9,24.6,33.9,37,50.8c5.9,8.1,11.7,16.2,17.6,24.3c1,1.4,2.1,3.6,4.3,2.7c1.8-0.8,1.1-3,0.9-4.6
		c-2.1-23.5,1.5-47-0.3-70.6c-0.4-5.4,2.6-6.4,7.3-6.3c4.7,0.1,7.1,1.2,7,6.6C1610.2,416.9,1610.3,433.2,1610.3,449.5
		C1610.3,449.5,1610.3,449.5,1610.3,449.5z"/>
	<path class="st0" d="M734.4,446.6c-0.4,25.8-9.1,44.3-30.1,54.8c-31.8,15.9-75.8,0-79.4-46.4c-1.6-21.1,4.8-39.2,22.1-52.4
		c23.5-17.8,71.2-14,84.2,27.8C733.2,436.6,734.9,442.8,734.4,446.6z M718.4,449.9c0-2.4,0.2-4.8,0-7.2c-1.8-16.1-9.6-28.3-25-33.8
		c-15.1-5.4-29.5-3.2-41,8.7c-13.3,13.6-14.8,30.3-9.9,47.6c8.5,30.1,39.5,33.7,56.9,22.9C713.2,479.6,719,466.2,718.4,449.9z"/>
	<path class="st0" d="M1446.4,448.9c0.2,21.7-7.2,39.9-26.6,51c-29.1,16.8-72.8,6-81.3-38.7c-5.2-27.5,6.8-53.5,30.8-63.9
		c28.2-12.2,64-1.1,74.4,33.2c0.9,2.8,2.2,5.6,2.6,8.5C1446.7,442.2,1446.4,445.5,1446.4,448.9z M1430.8,450.5c0-2.8,0.3-5.6,0-8.3
		c-1.7-15.9-9.4-27.8-24.7-33.2c-15.3-5.3-29.6-3.2-41.5,8.7c-11,11-12.7,24.9-11.2,39.2c3.3,31.9,31.9,43.8,55.8,32.8
		C1425.4,482.2,1431.2,467.7,1430.8,450.5z"/>
	<path class="st0" d="M70.4,449.7c0-16.3,0.1-32.6-0.1-49c-0.1-5.1,1.7-6.9,6.8-6.7c14.3,0.7,28.5-0.6,42.8,0.9
		c19.2,2.1,31.7,17.5,29.5,36.7c-1.7,14.2-8.9,23.7-23,27.3c-5.2,1.3-3.2,3.9-1.4,6.4c7.2,10.6,14.5,21.1,21.7,31.7
		c1.3,2,3.6,3.9,2.4,6.4c-1.2,2.7-4.2,1.7-6.5,2c-5.9,0.7-9.8-1.9-12.9-6.8c-6.4-10.2-13.4-20.1-19.6-30.4
		c-3.3-5.5-7.4-7.4-13.7-7.2c-11.2,0.4-11.2,0.1-11.2,11.2c0,8.9,0.1,17.8,0,26.7c-0.1,5.2-2.1,6.6-8.6,6.5
		c-4.5-0.1-6.5-1.8-6.4-6.8C70.5,482.4,70.3,466.1,70.4,449.7C70.4,449.7,70.4,449.7,70.4,449.7z M85.3,427.7c0,5.2,0.1,10.4,0,15.5
		c-0.1,4.1,1.8,5.6,5.7,5.5c7-0.2,14.1,0,21.1-0.1c12.8-0.2,21.7-8.1,22-19.5c0.2-12-8-20.6-20.9-21.2c-7.6-0.4-15.2,0-22.8-0.1
		c-3.9-0.1-5.2,1.8-5.1,5.5C85.4,418,85.3,422.8,85.3,427.7z"/>
	<path class="st0" d="M323.1,449.4c0-16.3,0.1-32.7-0.1-49c-0.1-4.9,1.7-6.4,6.5-6.4c20,0.2,40.1,0.3,60.1,0c5.6-0.1,7,2.3,7.1,7.3
		c0.1,5.3-2.4,6.6-7.2,6.5c-15.2-0.2-30.4,0.1-45.6-0.1c-4.6-0.1-6.3,1.5-6.1,6.1c0.3,7.2,0.3,14.5,0,21.7c-0.2,4.8,1.5,6.6,6.4,6.6
		c14.5-0.2,28.9,0.1,43.4,0.1c4,0,6.9,0.9,7,5.8c0.2,5.9-1,7.5-7.4,7.5c-13.7,0.1-27.5,0-41.2,0c-8.1,0-8.2,0-8.2,7.9
		c0,7.8,0.1,15.6,0,23.4c0,3.7,1.5,5.4,5.3,5.4c15.2-0.3,30.4,0.5,45.6-0.6c6-0.4,7,0.5,7,6.8c0,6.5-0.6,6.8-6.9,6.7
		c-19.3-0.2-38.6-0.2-57.9-0.1c-7.6,0-8-0.1-8-7.6C323.1,481.3,323.1,465.3,323.1,449.4z"/>
	<path class="st0" d="M1028.1,435.4c-0.6,11,1.2,24.4-1.1,37.7c-3.6,20.9-18.7,33.5-39.9,33.8c-11.5,0.2-22.5-0.6-32.3-7.9
		c-9.7-7.3-14.5-17-16.1-28.7c-1-7.6-1.1-15.2-1-22.8c0-15.6-0.1-31.2,0-46.8c0-6.7,1.1-7.2,10-6.8c5.5,0.2,5.4,3.5,5.3,7.6
		c-0.5,23-1.6,46,0.6,68.9c0.9,9.3,6.1,16.2,14.7,20.1c8.9,4,18.2,4,27.2,0.9c11.7-4,17.7-14.2,17.8-29.3c0.1-20,0-40.1,0.1-60.1
		c0-7.4,5.7-10.8,12.5-7.6c2.6,1.2,2.3,3.6,2.3,5.8C1028.1,411.2,1028.1,422.2,1028.1,435.4z"/>
	<path class="st0" d="M511,485.7c2.6-3.1,3.2-6.8,4.5-10.2c9.4-24.2,18.7-48.4,28-72.6c3.2-8.3,9-11.3,17.4-8.7
		c2.7,0.8,2.3,2.6,1.6,4.4c-1.5,4-3.1,7.9-4.8,11.9c-12.3,29.8-24.9,59.5-36.1,89.8c-1.1,3-2.9,4.3-6.1,4.5
		c-13.9,0.8-13.7,0.7-18.8-12.2c-12.2-30.7-24.5-61.2-36.9-91.8c-2.2-5.5-1.7-6.4,4.3-6.6c9.8-0.3,9.8-0.2,13.2,8.6
		c10.2,26.1,20.4,52.1,30.7,78.2C508.8,482.5,509.1,484.4,511,485.7z"/>
	<path class="st0" d="M1131.5,455.5c0-12.8,0-25.6,0-38.4c0-9.3,0-9.3-9-9.3c-6.7,0-13.4-0.1-20,0c-4.6,0.1-5.6-2.5-5.6-6.4
		c0-3.8,0.3-7.2,5.4-7.2c24.7,0,49.3-0.1,74,0c6.5,0,4.7,5.5,5.1,9.2c0.5,4.4-2.3,4.9-6.1,4.8c-8-0.4-15.9-0.2-23.9-0.4
		c-3.9-0.1-5.2,1.7-5.2,5.4c0.3,28.6-0.8,57.1,0.6,85.7c0.3,6.5-4.2,6-8,6.5c-4.3,0.6-7.3-0.9-7.3-5.9
		C1131.5,484.8,1131.5,470.1,1131.5,455.5C1131.5,455.5,1131.5,455.5,1131.5,455.5z"/>
	<path class="st0" d="M806.3,449.5c0-16.3,0.1-32.6-0.1-48.9c-0.1-4.7,1.5-6.7,6.4-6.6c4.6,0.1,8.5,0,8.4,6.4
		c-0.2,27.8-0.1,55.6-0.2,83.4c0,8.2,0,8.2,8.4,8.2c12,0,24.1,0.1,36.1-0.1c4.4-0.1,6.9,0.9,7,6.1c0.1,5.2-2,7.1-6.8,7
		c-13.3-0.1-26.7-0.3-40-0.3c-4.1,0-8.1,0.2-12.2,0.5c-5.8,0.5-7-0.4-7-6.2C806.3,482.4,806.3,465.9,806.3,449.5z"/>
	<path class="st0" d="M1250.4,449.3c0-16.1,0-32.3,0-48.4c0-6.5,0.5-6.7,7.6-6.9c5.1-0.2,7.3,1.4,7.3,6.9
		c-0.2,32.4-0.1,64.9-0.1,97.3c0,2.7,0.7,6.1-3,6.9c-3.8,0.9-7.8,0.5-11.3-1.6c-1.2-0.7-0.9-2.3-0.9-3.6c0-16.9,0-33.7,0-50.6
		C1250.2,449.3,1250.3,449.3,1250.4,449.3z"/>
	<path class="st0" d="M231.7,467.5c-9.8,0.2-18.2-7.7-18.2-17.2c0-10,7.9-18.1,17.8-18.2c8.9-0.1,17.3,8.3,17.5,17.5
		C248.9,458.7,240.6,467.3,231.7,467.5z"/>
	<path class="st0" d="M530.4,229.4c0-5.7,0.1-11.5,0-17.2c-0.1-3.4,1.3-5,4.8-5.5c5-0.7,10-0.8,14.9-0.2c5.8,0.8,11,3.4,12.4,9.5
		c1.4,6.1,1,12.3-5.4,16.2c-3.5,2.1-3.3,4.2-0.8,7.1c2.1,2.5,3.8,5.4,5.5,8.3c0.9,1.4,1.5,3.3-0.2,4.5c-1.9,1.5-3.4,0.1-4.8-1.2
		c-2.7-2.6-4.2-6-6.3-9.1c-1.1-1.7-2.1-3.5-3.5-5c-1.7-1.8-3.9-3.2-6.4-2.1c-2.6,1.1-3,3.6-2.9,6.1c0.1,2,0.5,4,0.5,6.1
		c0,2.6-0.7,4.9-4,4.8c-3-0.1-3.6-2.3-3.6-4.6C530.3,241.2,530.4,235.3,530.4,229.4z M545.8,212.8c-2.1,0.3-5.6-1.3-6.7,1.6
		c-1.4,3.5-2.2,7.7-1,11.3c0.9,2.8,4.6,1.7,7,2c7.6,1.1,12.3-1.6,12.6-7C558,215.7,554,213,545.8,212.8z"/>
	<path class="st0" d="M924.7,665.4c-0.1,13.3-9.5,22.9-22.5,22.9c-13.5,0-22.9-9.6-22.7-23.3c0.2-13.9,9.9-23.9,23.2-23.7
		C915.8,641.5,924.7,651.2,924.7,665.4z M917.8,664.8c0-10.7-5.5-16.7-15.6-16.7c-9.7-0.1-15.4,6-15.5,16.3
		c-0.1,10.5,6.4,17.8,15.7,17.8C911.8,682.1,917.7,675.4,917.8,664.8z"/>
	<path class="st0" d="M569.1,655.4c0.4-14.8-0.8-13,13.5-13.1c16.5-0.1,26.3,9.1,25.8,24.1c-0.3,11.4-9.3,20.9-20.7,21.7
		c-4.1,0.3-8.1-0.1-12.2,0c-3.8,0.1-5.3-2-5.3-5.5c0-4.6,0-9.3-0.2-13.9C569.9,664.2,569.5,659.8,569.1,655.4z M576.2,664.5
		c0,0-0.1,0-0.1,0c0,1.3,0,2.6,0,3.9c-0.1,14-0.1,14,13.9,11.8c6.1-1,10.9-6.3,11.6-12.5c1.9-16.5-10-20.4-21.9-19.6
		c-2.7,0.2-3.4,1.8-3.4,4.1C576.2,656.4,576.2,660.4,576.2,664.5z"/>
	<path class="st0" d="M1016.7,664.2c0-5.4,0.1-10.8,0-16.1c-0.1-3.9,1.2-5.9,5.4-5.8c6.7,0.2,13.4,0,20,0.1c2.1,0,4.5,0,4.6,2.8
		c0.1,2.8-2.3,3-4.4,3c-4.1,0-8.2,0.1-12.2,0c-6.1-0.1-5.4,4.2-5.4,8.1c-0.1,4.3,2.1,5.7,6,5c3.5-0.6,7,0,10.5,0
		c2.6,0,5.2,0.3,5.1,3.6c-0.1,3.2-2.7,2.9-4.9,2.9c-4.1,0-8.2,0.3-12.2,0.2c-5.2-0.1-5.4,3.2-5.3,7.1c0.1,4,1.6,6.4,6,6
		c4.1-0.3,8.1-0.6,12.2-0.7c2.7-0.1,4.9,0.7,5,3.9c0.1,3.3-2,4-4.7,4c-5.9,0-11.9,0.2-17.8-0.2c-6.5-0.4-7.6-1.9-7.7-8.3
		C1016.6,674.6,1016.7,669.4,1016.7,664.2z"/>
	<path class="st0" d="M1077.8,665.1c0-5.9,0.1-11.8,0-17.8c-0.1-3.5,1.4-5.1,5-5c4.6,0.1,9.3-0.1,13.9,0c6.5,0.2,10.9,3.4,12.7,8.9
		c2.2,6.6,1.2,12-4.4,15.8c-4.9,3.3-4.3,6-0.8,9.6c2.1,2.1,3.9,4.4,4.8,7.4c0.4,1.4,0.8,3.1-0.5,4.1c-1.5,1.1-2.8-0.1-3.9-1
		c-3.1-2.5-5.1-5.8-7.1-9.2c-1.2-1.9-2.3-3.8-3.7-5.6c-1.8-2.4-4.5-2.5-7.1-1.8c-2.8,0.7-2.8,3.1-2.9,5.4c-0.1,2.9-0.1,5.9-0.4,8.8
		c-0.1,1.4-0.8,3.2-2.5,3.3c-2.2,0.1-2.7-1.9-2.7-3.5c-0.1-6.5-0.1-12.9-0.1-19.4C1078,665.1,1077.9,665.1,1077.8,665.1z
		 M1092.1,648.2c-2.2,0.6-5.8-1.5-7.1,2.6c-3.1,9.6-0.8,12.9,9.1,12.8c1.3,0,2.6,0,3.8-0.3c4.2-1,6.1-3.8,5.7-8.1
		C1103.1,650.1,1100.2,648.3,1092.1,648.2z"/>
	<path class="st0" d="M766.3,664.6c0-5.8,0-11.5,0-17.3c0-3.1,1-5,4.4-5c7.4,0,14.8,0,22.3,0.1c1.7,0,3.7,0.2,3.6,2.5
		c-0.1,1.9-1.7,2.9-3.5,3c-5,0.2-10,0.4-15,0.2c-5.2-0.2-4.9,3.3-4.9,6.7c0,3.3-0.1,6.5,4.7,6.3c4.4-0.1,8.9,0,13.4,0.1
		c2.4,0,4.7,0.7,4.8,3.5c0.1,3.2-2.6,3.2-4.8,3.2c-4.4,0.1-8.9,0.2-13.4,0.1c-6.2-0.1-4.6,4.5-4.8,7.9c-0.2,3.8,1.6,5.6,5.4,4.9
		c4.4-0.7,8.9-0.8,13.3-0.6c2.5,0.1,5.1,0.8,5.1,3.9c0,3.1-2.4,3.9-5,3.9c-5.9,0-11.9,0.1-17.8-0.2c-7.2-0.4-7.8-1.2-7.8-8.4
		C766.3,674.7,766.3,669.7,766.3,664.6C766.3,664.6,766.3,664.6,766.3,664.6z"/>
	<path class="st0" d="M818.5,221.5c0-15.2,0-15.2,15.4-15.3c3.1,0,6.3-0.1,9.4,0.1c2.2,0.1,4.9,0.2,4.9,3.2c0,3-2.5,3.3-4.8,3.3
		c-4.3,0.1-8.5,0.2-12.8,0c-4.5-0.2-6.4,1.5-6.3,6.1c0.1,4.6,1.3,7.6,6.7,7c3.9-0.4,7.7-0.6,11.6-0.8c2.6-0.1,5.2,0.6,5.2,3.7
		c0.1,3.2-2.8,2.9-4.9,3c-4.3,0.1-8.5,0.2-12.8,0c-6.1-0.3-5.6,4-5.7,7.9c-0.1,4.5,2,6.3,6.6,5.9c4.2-0.4,8.5-0.5,12.7-0.5
		c2.1,0,4.2,0.7,4.3,3.4c0.1,2.6-1.9,3.4-4.1,3.7c-7.2,0.8-14.4,0.7-21.6,0.1c-4.2-0.3-4.7-4-4.7-7.1c0-7,0.5-14,0.8-21.1
		C818.5,223.4,818.5,222.4,818.5,221.5z"/>
	<path class="st0" d="M593.9,233.3c-0.2-7.9,0.2-14.8,0.8-21.6c0.3-3.2,1.5-4.3,4.7-4.8c7.1-0.9,14.1,0.5,21.1,0
		c2.1-0.2,3.8,0.9,3.7,3.2c-0.1,2.2-2,2.5-3.7,2.5c-4.1,0.2-8.2,0.4-12.2,0.2c-5.3-0.3-6.7,2.2-6.7,7c0.1,4.9,2.1,6.7,6.8,6.2
		c3.1-0.3,6.3-0.3,9.4-0.6c2.8-0.2,5.6-0.4,5.9,3.2c0.2,3.7-2.9,3.2-5.2,3.2c-3.9,0.1-7.8,0.1-11.7,0c-5.4-0.2-5.2,3.5-5.2,7.2
		c0,3.8,0.2,7.2,5.5,6.9c4.3-0.2,8.5-0.1,12.8,0c2,0,3.9,0.6,3.9,3c0.1,2.5-1.9,2.9-3.8,2.9c-6.9,0-13.7,0.1-20.6,0
		c-3.6,0-5.4-2.3-5.5-5.7C593.8,241.5,593.9,236.9,593.9,233.3z"/>
	<path class="st0" d="M639.3,664.5c0-5.6,0.1-11.1,0-16.7c-0.1-3.7,1.2-5.6,5.1-5.5c6.5,0.1,13,0,19.5,0c2.1,0,4.5,0.2,4.4,3
		c0,2.9-2.5,2.8-4.5,2.8c-4.1,0-8.2,0-12.2-0.1c-5.3-0.2-5.2,3.4-5.3,7.1c0,3.9,0.7,6.6,5.5,6.2c4.2-0.3,8.5-0.1,12.8-0.2
		c2.6-0.1,3.9,1.2,3.7,3.6c-0.1,2.4-1.8,3.2-3.9,2.9c-4.6-0.7-9.2-0.4-13.8,0.2c-5.5,0.6-4.2,4.6-4.3,8c-0.2,3.7,1.5,5.6,5.3,5.3
		c4.1-0.3,8.1-0.6,12.2-0.8c2.6-0.1,5.1,0.5,5.2,3.7c0.1,3.5-2.3,4.2-5.2,4.2c-5.7-0.1-11.5,0-17.2-0.1c-4.9-0.1-7.5-2-7.1-7.5
		C639.6,675.3,639.3,669.9,639.3,664.5z"/>
	<path class="st0" d="M894.3,205.7c4.5-0.2,8.5,1.1,11.9,3.9c1.6,1.3,3.5,2.8,2,5.1c-1.3,2-3.4,1.1-5,0.2c-3.4-1.8-7-2.7-10.7-2.6
		c-3.4,0.1-6.9,1.5-7.6,5.3c-0.7,3.9,3,4.7,5.7,5.7c3.1,1.2,6.4,1.9,9.6,2.8c5.9,1.8,9.7,6.4,10.1,11.9c0.4,6-2.8,11.5-8.6,13.6
		c-7.6,2.7-15,1.8-21.6-3c-1.8-1.3-3.7-3.3-2.6-5.6c1.4-2.8,4-1,5.8,0c4.2,2.2,8.5,3.7,13.3,3c3.3-0.5,6.4-1.8,7.2-5.2
		c0.9-3.6-2.4-5.2-4.9-6.6c-2.1-1.1-4.5-1.6-6.8-2.4c-2.1-0.7-4.3-1.2-6.3-2.2c-6.1-3-8.7-7.1-8.2-12.5c0.5-4.8,4.8-9.2,10.7-10.7
		C890.2,206,892.3,206,894.3,205.7z"/>
	<path class="st0" d="M692.8,248.8c0,2.8-1.6,3.5-4,2.8c-0.9-0.3-1.7-1.3-2.5-2.1c-2-2.3-1.5-6.9-5.3-7.3
		c-5.8-0.5-11.8-0.2-17.7-0.1c-2.1,0.1-2.8,2.1-3.5,3.9c-0.6,1.4-1.1,2.8-1.9,4c-1.2,1.8-3,2.3-4.9,1.4c-1.9-0.9-1.7-2.8-1-4.3
		c5.8-11.8,8.5-24.9,15-36.4c2.8-4.9,7.1-5.3,9.8-0.5c6.8,11.8,10.2,25,15.6,37.4C692.7,247.9,692.7,248.3,692.8,248.8z
		 M672.4,235.5c0.7,0.1,2,0.2,3.3,0.3c3.4,0.2,4.6-1.6,3.2-4.4c-1.9-3.8-3.3-7.8-4.5-11.8c-0.3-1-0.8-2.3-2-2.4
		c-1.7-0.1-1.9,1.5-2.2,2.7c-1.3,4-2.3,8.1-4.7,11.7c-1.7,2.6-0.3,4.2,2.7,4.3C669.2,235.9,670.5,235.7,672.4,235.5z"/>
	<path class="st0" d="M1034.2,249.1c0.2,1.6-0.2,2.6-1.3,3.2c-1.1,0.6-2.1,0.2-3.1-0.5c-0.4-0.3-1-0.7-1.1-1.2
		c-3.7-13.1-14.9-6.2-22.7-8.5c-1.5-0.4-2.6,1.1-3.4,2.4c-0.9,1.6-1.9,3.2-2.8,4.8c-1.1,1.8-2.4,3.8-4.7,2.8
		c-2.7-1.1-1.6-3.4-0.9-5.3c1.9-5,4-9.9,6-14.9c2.8-6.8,5.6-13.7,8.4-20.5c1-2.5,2.3-4.9,5.4-4.9c3.1,0,4.3,2.3,5.5,4.7
		c5.5,11.3,9.3,23.4,13.9,35C1033.8,247.3,1034,248.4,1034.2,249.1z M1012.5,235.5c9.3-1,9.3-1,6-9.2c-1-2.6-1.9-5.2-2.9-7.8
		c-0.4-1-0.8-2.3-2.1-2.2c-1.4,0-1.6,1.4-1.9,2.4c-1.2,3.1-2.3,6.2-3.5,9.3c-0.7,2-2.8,4-1.4,6.2
		C1008.2,236.7,1010.9,235.6,1012.5,235.5z"/>
	<path class="st0" d="M955.4,672.2c0-8.3,0.1-16.6,0-25c0-3.2,1.3-4.9,4.5-4.9c5.2,0,10.4-0.3,15.5,0c6.8,0.4,11.3,4.7,12.4,11.4
		c1.1,6.7-2.3,12.6-8.6,15.1c-3.3,1.3-6.8,1.5-10.4,1.5c-6.9,0-7.9,1.3-7.2,8.3c0.2,1.8,0.3,3.7,0.1,5.5c-0.2,1.6-0.7,3.5-2.8,3.6
		c-2.2,0.1-3.3-1.5-3.8-3.4C954,680.4,954.8,676.3,955.4,672.2z M969.5,663.4c1.7,0,2.8,0,4,0c4.7,0.1,7.5-2.8,8-7
		c0.6-4.4-2.8-6.9-6.5-7.7c-3.8-0.9-8.8-2.5-11.6,0.8c-2.5,3-1.8,8-0.6,11.8C963.8,664.8,967.5,663.1,969.5,663.4z"/>
	<path class="st0" d="M1134.8,251.9c-16.3-0.5-14.4,3.3-15.3-15.4c-0.4-8.3,0.5-16.7,0.7-25c0.1-2.9,1.1-4.5,4.2-4.5
		c6.9,0,13.7,0,20.6,0c1.9,0,4.1,0.2,4,2.7c-0.1,2.3-2.3,2.1-3.9,2.2c-4.4,0.3-8.9,0.8-13.3,0.8c-4.4,0-6,2-5.8,6.1
		c0.2,4.1,0.8,7.5,6.2,7.1c3.9-0.3,7.8-0.5,11.7-0.5c2.5,0,5.3,0.7,5.5,3.5c0.2,3.3-2.9,2.7-5,2.8c-4.3,0.1-8.5,0.2-12.8,0.1
		c-5.1-0.2-5.5,3.1-5.5,7c0,3.9,0.6,7.1,5.6,7.1c4.1-0.1,8.2,0,12.2,0.1c2.2,0,5-0.2,5.1,2.9c0.1,3.8-3.1,2.9-5.3,3
		C1140.7,252.1,1137.8,251.9,1134.8,251.9z"/>
	<path class="st0" d="M738.3,645.3c-1,2.3-2.2,4.8-3.3,7.4c-4,10.2-7.4,20.6-12.4,30.4c-1.1,2.3-2.1,5-5.4,4.9
		c-3-0.1-4.7-2.4-5.7-4.7c-5.1-12.1-10-24.3-15-36.5c-0.6-1.4-0.8-3,0.7-4c1.4-0.9,2.9-0.3,4.2,0.5c1.7,1,2.5,2.7,3.2,4.4
		c3.2,8.3,6.3,16.6,9.4,25c0.6,1.5,0.7,3.7,2.7,3.8c2,0.1,2.3-2.1,2.9-3.6c3.3-8.7,6.6-17.3,10-25.9c1-2.6,2.5-4.6,5.7-4.3
		C737.1,642.5,738.2,643.1,738.3,645.3z"/>
	<path class="st0" d="M1069.3,231.1c0-4.3-0.3-8.5,0.1-12.7c0.4-4.2-1.3-5.6-5.3-5.7c-2.8-0.1-7.6,1.7-7.7-2.8
		c-0.1-5,5.1-3.9,8.3-3.7c7,0.4,14,0.9,21,0.7c2.1,0,4.5,0.1,4.7,2.7c0.2,2.9-2.5,2.7-4.4,3c-9.1,1.1-9.1,1.1-9.1,10.3
		c0,7.6,0.1,15.2,0,22.7c0,2.7,0.4,6.1-3.8,6c-3.9-0.1-3.8-3.4-3.9-6.2c-0.1-4.8,0-9.6,0-14.4
		C1069.3,231.1,1069.3,231.1,1069.3,231.1z"/>
	<path class="st0" d="M951,231.9c0-4.6-0.2-9.3,0-13.9c0.2-3.9-1.5-5.4-5.2-5.2c-2,0.1-4.1-0.1-6.1-0.3c-1.4-0.2-2.5-0.9-2.5-2.5
		c0-1.5,0.9-2.5,2.3-2.7c2.4-0.4,4.8-1.3,7.1-0.9c6.3,0.8,12.5,0.1,18.8-0.1c2.7-0.1,6.4-0.1,6.3,3.6c0,3.7-3.6,2.9-6.1,2.9
		c-7.7,0.2-7.7,0.1-7.7,7.7c0,8.7,0,17.4,0,26.1c0,2.3,0.5,5.6-2.8,5.7c-3.7,0.2-4.1-3.1-4.1-6C951,241.5,951,236.7,951,231.9
		C951,231.9,951,231.9,951,231.9z"/>
	<path class="st0" d="M833.4,661.8c0,4.3,0.1,8.5,0,12.8c-0.2,4.8,2,6.8,6.8,6.2c3.3-0.4,6.7-0.4,10-0.3c2.2,0,4.1,1,4.1,3.6
		c0,2.8-1.7,4-4.2,4.1c-5.9,0-11.9,0.1-17.8-0.1c-3.6-0.2-5.9-2.2-5.8-6.1c0.3-11.9,0.7-23.7,1-35.6c0.1-2,0.6-3.9,3.1-3.7
		c2.4,0.2,2.7,2.2,2.8,4.1C833.3,651.8,833.3,656.8,833.4,661.8C833.3,661.8,833.3,661.8,833.4,661.8z"/>
	<path class="st0" d="M721.4,228.1c0-5.4,0.1-10.7,0-16.1c0-2.5-0.5-5.3,2.9-5.5c3.9-0.3,4.2,2.7,4.3,5.7c0.2,8.2-0.4,16.3-0.9,24.4
		c-0.6,9.2-0.2,9.4,8.9,9.4c2.8,0,5.6,0,8.3,0.2c1.8,0.1,3.3,1,3.4,3c0.1,2.3-1.8,2.6-3.5,2.6c-6.1,0-12.2,0-18.3,0
		c-3.8,0-4.7-2.3-4.7-5.4c0-6.1,0-12.2,0-18.3C721.6,228.1,721.5,228.1,721.4,228.1z"/>
</g>
</svg>
